 <svg  version="1.0" xmlns="http://www.w3.org/2000/svg"  width="900.000000pt" height="669.000000pt" viewBox="0 0 900.000000 669.000000"  preserveAspectRatio="xMidYMid meet">  <g transform="translate(0.000000,669.000000) scale(0.100000,-0.100000)" fill="#c0c0c0" stroke="none"> <path d="M3285 5940 c-11 -5 -83 -14 -160 -20 -77 -6 -162 -12 -190 -15 -27 -2 -79 -8 -113 -14 -35 -6 -67 -9 -72 -6 -4 3 -29 -6 -54 -20 -26 -14 -52 -25 -58 -25 -7 0 -21 -8 -32 -18 -12 -10 -40 -25 -64 -32 -42 -13 -59 -26 -49 -37 6 -6 98 25 167 55 50 23 82 32 148 43 92 16 123 20 151 19 12 0 28 3 34 7 6 4 61 8 122 10 60 2 142 8 180 12 87 10 349 -24 449 -59 16 -6 41 -10 56 -10 15 0 33 -7 40 -15 7 -8 24 -15 39 -15 14 0 35 -7 45 -15 10 -8 42 -22 70 -31 28 -9 58 -23 67 -30 8 -8 21 -14 29 -14 35 0 245 -121 277 -160 11 -13 14 -13 23 0 12 18 12 22 2 36 -10 15 -179 124 -192 124 -11 0 -90 33 -122 50 -10 6 -26 10 -37 10 -10 0 -24 7 -31 15 -7 8 -21 15 -31 15 -9 0 -24 6 -31 13 -17 16 -146 57 -180 57 -15 0 -29 4 -32 9 -3 5 -36 12 -73 16 -38 4 -72 11 -78 15 -5 4 -50 10 -99 13 -49 4 -94 11 -99 16 -13 13 -74 13 -102 1z"/> <path d="M2350 5875 c-10 -12 -10 -21 -1 -41 19 -43 65 -94 84 -94 10 0 17 3 15 8 -37 81 -70 142 -77 142 -5 0 -14 -7 -21 -15z"/> <path d="M2205 5761 c-14 -28 -13 -31 15 -61 30 -32 31 -32 50 -15 25 23 26 67 2 88 -27 25 -50 21 -67 -12z"/> <path d="M2054 5616 c-3 -8 -18 -17 -33 -21 -27 -6 -57 -40 -42 -49 4 -3 37 4 73 16 58 19 64 23 60 44 -3 17 -11 24 -28 24 -14 0 -27 -6 -30 -14z"/> <path d="M1783 5570 c-9 -17 -25 -33 -35 -36 -10 -3 -18 -8 -18 -12 0 -4 -9 -18 -19 -32 -16 -20 -22 -22 -35 -11 -20 17 -36 6 -36 -24 0 -28 15 -40 32 -25 7 6 27 22 43 36 55 46 124 76 169 72 50 -4 60 13 14 27 -18 5 -39 15 -46 22 -22 22 -50 15 -69 -17z"/> <path d="M4400 5522 c0 -5 9 -13 20 -18 26 -12 130 -104 217 -192 60 -60 82 -93 129 -188 31 -63 61 -117 65 -120 17 -10 9 39 -8 52 -15 11 -16 16 -5 33 16 27 15 30 -7 24 -15 -4 -22 4 -32 34 -7 21 -12 47 -11 58 2 35 -49 94 -205 234 -81 73 -108 91 -132 91 -17 0 -31 -4 -31 -8z"/> <path d="M1556 5398 c-11 -15 -12 -26 -5 -40 14 -27 33 -22 62 16 l26 34 -22 6 c-36 9 -45 7 -61 -16z"/> <path d="M1460 5276 c-46 -31 -83 -75 -76 -91 3 -8 14 -19 26 -25 17 -9 22 -7 29 13 5 13 30 42 56 65 43 38 45 41 26 51 -24 13 -19 15 -61 -13z"/> <path d="M1318 5050 c-32 -32 -58 -63 -58 -68 0 -5 -9 -12 -20 -15 -28 -7 -25 -45 6 -73 33 -31 46 -30 44 4 -4 54 1 64 50 112 50 48 75 100 49 100 -8 -1 -40 -27 -71 -60z"/> <path d="M4850 4961 c0 -11 5 -23 10 -26 6 -4 10 5 10 19 0 14 -4 26 -10 26 -5 0 -10 -9 -10 -19z"/> <path d="M4880 4901 c0 -12 5 -21 10 -21 6 0 10 6 10 14 0 8 -4 18 -10 21 -5 3 -10 -3 -10 -14z"/> <path d="M4910 4841 c0 -12 5 -21 10 -21 6 0 10 6 10 14 0 8 -4 18 -10 21 -5 3 -10 -3 -10 -14z"/> <path d="M4940 4792 c0 -19 37 -102 45 -102 3 0 5 14 5 30 0 20 -5 30 -15 30 -10 0 -15 10 -15 30 0 17 -4 30 -10 30 -5 0 -10 -8 -10 -18z"/> <path d="M1192 4782 c-20 -13 -3 -40 29 -47 16 -4 33 -14 39 -23 7 -14 9 -11 10 15 0 17 6 35 12 39 9 6 5 10 -12 15 -35 10 -63 10 -78 1z"/> <path d="M5000 4645 c0 -14 5 -25 10 -25 6 0 10 11 10 25 0 14 -4 25 -10 25 -5 0 -10 -11 -10 -25z"/> <path d="M1136 4585 c-4 -13 -13 -15 -36 -10 -22 5 -33 2 -47 -14 -9 -12 -25 -21 -35 -21 -18 0 -34 -18 -24 -27 3 -4 18 0 33 7 16 8 55 23 88 35 57 19 74 36 42 43 -8 2 -17 -4 -21 -13z"/> <path d="M5030 4566 c0 -8 5 -18 10 -21 6 -3 10 1 10 9 0 8 -4 18 -10 21 -5 3 -10 -1 -10 -9z"/> <path d="M529 4415 c0 0 -1 -178 -3 -395 -1 -217 -4 -402 -7 -410 -3 -13 11 -15 86 -15 84 0 90 1 88 20 -1 11 -5 84 -9 163 l-7 142 277 0 c267 0 277 1 309 22 63 41 77 81 77 223 0 138 -11 174 -66 218 -27 21 -39 22 -224 25 -107 1 -268 3 -358 5 -89 1 -162 2 -163 2z m651 -239 c7 -92 -6 -110 -70 -99 -25 5 -126 6 -225 3 -104 -4 -185 -2 -192 3 -9 6 -13 37 -13 88 l0 79 248 -2 247 -3 5 -69z"/> <path d="M2321 4402 c-5 -8 -4 -37 1 -64 9 -47 6 -677 -3 -723 -4 -19 2 -20 81 -23 l86 -3 -1 168 0 168 45 -1 c45 -2 47 -4 210 -168 l164 -166 118 0 119 0 -3 88 -3 87 -82 -4 c-82 -3 -82 -3 -115 31 -18 18 -53 50 -77 70 -31 25 -42 40 -38 52 6 14 19 15 105 10 113 -8 133 0 183 70 28 38 29 43 29 163 0 136 -13 180 -65 221 -36 28 -83 32 -438 35 -251 2 -310 -1 -316 -11z m657 -225 c2 -37 -1 -74 -6 -83 -8 -14 -41 -16 -248 -16 l-239 -1 -3 87 -3 86 248 -2 248 -3 3 -68z m-514 -160 c13 -20 -2 -50 -28 -55 -11 -3 -16 4 -16 21 0 55 21 71 44 34z m330 -47 c11 -11 -18 -47 -46 -56 -13 -4 -28 2 -44 17 -26 25 -31 44 -11 53 17 7 90 -3 101 -14z"/> <path d="M3231 4405 c-10 -13 -7 -142 2 -152 5 -4 81 -6 169 -4 l161 3 -6 -309 c-4 -169 -8 -317 -9 -328 -3 -18 4 -20 82 -23 l85 -3 -4 332 -3 331 163 -3 164 -4 6 75 c4 41 3 79 -1 83 -11 12 -800 14 -809 2z m427 -117 c-7 -19 -38 -22 -38 -4 0 10 9 16 21 16 12 0 19 -5 17 -12z"/> <path d="M4559 4411 c-328 -6 -348 -7 -370 -26 -68 -59 -68 -56 -71 -488 l-3 -307 82 0 c45 0 83 3 85 8 2 4 1 75 -2 157 -3 83 -3 154 1 158 4 5 153 8 333 7 l326 -1 0 80 c0 44 -3 81 -7 83 -5 3 -152 1 -328 -2 -176 -3 -322 -5 -324 -3 -4 3 -5 125 -2 166 1 5 144 8 319 7 174 -1 323 -1 330 -1 20 1 12 166 -8 166 -8 1 -171 -1 -361 -4z m-292 -399 c8 -33 -29 -71 -51 -52 -21 16 -20 54 1 86 16 25 17 25 30 8 8 -11 17 -30 20 -42z"/> <path d="M5915 4403 c-9 -8 -10 -25 -4 -55 4 -24 8 -174 9 -333 0 -296 4 -340 37 -373 52 -53 46 -52 428 -52 l356 0 -3 87 -3 87 -270 -2 c-148 -2 -295 -5 -326 -8 -49 -6 -57 -4 -60 12 -2 11 -2 154 1 319 3 165 2 306 -1 314 -9 19 -146 22 -164 4z"/> <path d="M6803 4404 c-2 -6 -3 -44 -1 -85 l3 -74 164 0 163 0 0 -243 c0 -134 -2 -245 -4 -247 -2 -1 -73 1 -158 5 -85 4 -158 5 -162 3 -4 -2 -7 -42 -7 -88 l1 -85 413 0 c228 0 415 3 417 8 2 4 2 40 0 80 -3 55 -8 74 -20 80 -9 5 -80 5 -157 1 -77 -3 -144 -3 -148 1 -5 4 -9 115 -9 246 l0 239 153 1 c85 0 160 1 167 2 8 2 12 26 12 82 0 57 -4 80 -12 80 -718 5 -811 4 -815 -6z m427 -118 c0 -8 -5 -18 -11 -22 -14 -8 -33 11 -25 25 10 16 36 13 36 -3z m18 -583 c2 -8 -5 -13 -17 -13 -21 0 -35 13 -24 24 10 10 36 3 41 -11z"/> <path d="M1540 4403 c-32 -6 -69 -36 -92 -74 -16 -27 -18 -57 -18 -335 l0 -305 51 -50 50 -49 299 0 c333 0 333 0 385 71 l25 33 0 305 c0 337 1 331 -65 383 -29 23 -32 23 -320 24 -159 1 -301 0 -315 -3z m545 -398 c0 -135 -2 -245 -5 -246 -36 -3 -482 0 -486 4 -4 4 -8 435 -5 480 1 4 112 7 249 7 l247 0 0 -245z"/> <path d="M5133 4403 c-23 -3 -43 -17 -68 -47 l-35 -43 0 -312 c0 -306 0 -312 22 -342 12 -16 37 -38 56 -49 31 -19 52 -20 328 -20 l295 0 35 26 c74 57 74 58 74 378 0 315 -2 327 -65 386 l-27 25 -291 1 c-161 1 -307 0 -324 -3z m549 -165 c2 -6 1 -32 -3 -57 -11 -67 -10 -276 1 -346 5 -33 6 -63 1 -68 -5 -5 -118 -9 -252 -9 l-244 -1 0 246 0 247 247 0 c181 0 247 -3 250 -12z"/> <path d="M7819 4403 c-33 -5 -83 -58 -98 -102 -7 -22 -11 -128 -11 -300 0 -318 5 -338 81 -386 l39 -25 291 0 c258 0 294 2 322 18 39 21 52 36 75 87 15 35 17 71 16 307 -2 163 -7 281 -13 301 -6 18 -27 49 -47 68 l-35 34 -297 1 c-163 1 -309 0 -323 -3z m543 -398 c-1 -132 -1 -242 -1 -245 -1 -3 -109 -5 -241 -5 -132 0 -240 2 -240 5 -1 8 -1 474 -1 483 1 4 110 6 242 5 l242 -3 -1 -240z"/> <path d="M990 3693 c1 -49 7 -115 15 -148 8 -33 15 -77 15 -97 0 -20 4 -39 9 -42 5 -3 12 -21 15 -40 4 -19 13 -39 21 -46 8 -7 15 -27 15 -45 0 -18 7 -38 15 -45 8 -7 15 -17 15 -22 0 -5 7 -16 15 -24 8 -9 15 -26 15 -40 0 -14 7 -27 15 -30 8 -4 15 -17 15 -30 0 -15 6 -24 15 -24 8 0 15 1 15 3 0 7 -43 110 -64 154 -14 29 -26 60 -26 69 0 9 -6 28 -14 42 -22 41 -53 185 -66 302 -15 134 -18 150 -30 150 -6 0 -10 -37 -10 -87z"/> <path d="M5077 3458 c-8 -18 -25 -69 -37 -113 -12 -44 -28 -92 -36 -107 -8 -14 -14 -34 -14 -45 0 -10 -11 -37 -24 -60 -14 -23 -27 -52 -31 -63 -7 -21 -85 -145 -107 -169 -18 -20 -58 -103 -58 -120 0 -11 5 -10 20 4 11 10 20 22 20 28 0 5 16 28 36 51 50 59 51 60 76 108 12 24 24 45 27 48 15 13 81 164 81 184 0 8 5 18 10 21 6 3 10 18 10 32 0 14 6 39 14 56 8 18 16 46 19 62 3 17 11 45 18 62 9 23 10 36 3 43 -8 8 -16 2 -27 -22z"/> <path d="M733 3063 c-11 -74 -18 -106 -58 -263 -29 -117 -29 -117 -6 -125 12 -4 28 -2 35 4 12 10 29 75 41 156 15 99 42 132 56 69 4 -16 17 -54 29 -84 12 -30 25 -69 29 -85 11 -43 30 -75 44 -75 7 0 20 28 30 63 55 185 106 274 107 184 1 -18 7 -59 15 -92 8 -33 15 -74 15 -92 0 -40 34 -64 57 -40 12 11 12 23 4 63 -6 27 -16 74 -22 104 -6 30 -18 72 -25 93 -8 20 -14 55 -14 77 0 43 -27 120 -41 120 -11 0 -10 1 -34 -85 -9 -33 -22 -71 -28 -85 -6 -14 -20 -54 -32 -90 -12 -35 -26 -65 -32 -67 -9 -3 -24 26 -59 120 -9 23 -22 57 -30 75 -8 18 -14 42 -14 53 0 28 -28 79 -43 79 -8 0 -17 -28 -24 -77z"/> <path d="M1386 3115 c-9 -13 -16 -32 -16 -41 0 -9 -6 -28 -14 -42 -25 -49 -54 -116 -69 -162 -9 -25 -29 -72 -45 -105 -22 -45 -27 -65 -20 -78 6 -11 16 -16 25 -13 8 3 18 6 23 6 4 0 17 26 29 58 l22 58 82 -1 c79 -2 82 -3 99 -31 10 -16 18 -39 18 -52 0 -32 44 -52 66 -30 14 14 13 21 -11 74 -15 33 -33 73 -40 89 -7 17 -18 41 -23 55 -6 14 -21 50 -33 80 -12 30 -28 69 -35 87 -8 17 -14 40 -14 52 0 29 -24 27 -44 -4z m45 -151 c4 -16 14 -46 23 -67 9 -21 14 -42 11 -47 -8 -12 -95 -13 -113 -1 -14 8 -15 6 32 114 19 44 37 44 47 1z"/> <path d="M5205 3113 c-3 -16 -10 -44 -15 -64 -6 -20 -10 -48 -10 -62 0 -13 -6 -47 -14 -73 -46 -159 -58 -217 -44 -230 7 -7 23 -11 34 -8 18 5 24 20 38 89 9 46 16 99 16 117 0 18 5 40 10 48 8 13 11 13 25 -1 9 -9 20 -31 25 -50 4 -19 18 -59 30 -89 13 -30 25 -70 27 -88 3 -19 12 -36 19 -39 20 -8 44 16 44 43 0 13 6 38 14 56 26 61 44 113 50 141 4 18 13 27 26 27 15 0 20 -9 25 -47 13 -105 34 -196 47 -204 7 -5 20 -8 28 -6 24 4 14 103 -22 217 -7 19 -15 55 -19 80 -27 167 -27 170 -43 170 -9 0 -21 -23 -31 -57 -9 -32 -22 -71 -30 -88 -7 -16 -16 -39 -18 -50 -15 -57 -45 -120 -58 -123 -12 -2 -22 16 -38 65 -12 37 -28 82 -36 98 -7 17 -18 48 -24 70 -6 22 -13 50 -16 63 -9 31 -33 28 -40 -5z"/> <path d="M5845 3128 c-17 -57 -47 -142 -54 -156 -37 -77 -111 -258 -111 -274 0 -45 64 -25 74 23 13 68 26 76 111 75 86 -1 97 -9 115 -78 12 -43 43 -59 68 -35 14 14 12 22 -15 79 -17 35 -41 88 -53 118 -12 30 -35 86 -51 124 -16 38 -29 76 -29 86 0 16 -29 50 -44 50 -3 0 -8 -6 -11 -12z m50 -178 c6 -19 16 -45 23 -58 23 -40 9 -53 -50 -50 -61 3 -69 18 -45 77 9 20 18 44 21 54 9 29 39 16 51 -23z"/> <path d="M1729 3109 c-6 -3 -8 -94 -7 -215 3 -192 4 -209 21 -212 35 -7 44 13 35 80 -6 49 -5 65 6 76 9 9 19 11 29 6 15 -9 59 -67 95 -126 18 -30 64 -54 81 -43 21 12 11 37 -39 94 -56 64 -62 88 -25 97 45 11 75 59 75 118 0 47 -4 56 -37 89 -27 28 -45 37 -72 38 -96 4 -154 3 -162 -2z m192 -75 c28 -25 25 -85 -5 -113 -20 -19 -33 -22 -82 -19 l-59 3 0 65 c-1 36 4 71 9 79 14 18 112 8 137 -15z"/> <path d="M2247 3113 c-4 -3 -7 -84 -7 -179 l0 -174 -25 -16 c-22 -15 -31 -15 -64 -4 -60 19 -82 -9 -41 -50 35 -35 131 -20 171 26 23 27 34 390 11 399 -19 7 -37 6 -45 -2z"/> <path d="M2585 3112 c-72 -25 -134 -101 -149 -182 -20 -106 59 -225 166 -248 109 -25 210 24 258 124 18 37 22 57 18 108 -10 121 -88 196 -208 202 -36 2 -74 0 -85 -4z m132 -63 c102 -38 136 -182 61 -258 -35 -35 -87 -61 -125 -61 -74 0 -163 90 -163 165 0 57 61 142 112 157 36 10 84 9 115 -3z"/> <path d="M3083 3112 l-63 -3 0 -213 c0 -213 0 -214 22 -220 34 -8 41 7 39 88 -3 116 28 116 103 0 48 -74 80 -99 111 -88 26 11 16 34 -40 93 -30 32 -55 63 -55 70 0 7 16 19 35 27 85 35 98 161 22 218 -35 26 -78 33 -174 28z m149 -84 c25 -32 22 -70 -7 -102 -21 -23 -32 -26 -85 -26 l-60 0 0 73 c0 41 3 77 8 81 4 5 34 6 66 3 47 -4 64 -10 78 -29z"/> <path d="M3413 3104 c-3 -9 -1 -19 4 -23 6 -3 43 -49 83 -101 l72 -95 -5 -98 c-6 -94 -5 -98 16 -106 40 -16 49 4 45 104 l-3 91 47 65 c26 35 51 69 56 74 59 71 64 105 17 105 -20 0 -35 -16 -81 -85 -31 -47 -59 -85 -63 -85 -9 0 -41 33 -41 42 0 10 -71 113 -83 120 -21 13 -57 8 -64 -8z"/> <path d="M4164 3111 c-2 -2 -4 -101 -4 -219 l0 -214 98 4 c84 3 102 7 139 31 24 15 55 46 70 70 23 35 27 53 27 112 0 62 -3 76 -30 115 -16 24 -47 57 -69 71 -35 23 -52 27 -133 30 -52 2 -96 2 -98 0z m198 -79 c87 -50 100 -179 26 -248 -36 -34 -142 -64 -160 -46 -11 11 -14 295 -3 312 9 14 102 2 137 -18z"/> <path d="M6196 3112 c-17 -7 -18 -24 -20 -216 -1 -191 0 -209 17 -218 13 -6 23 -5 34 3 12 11 14 27 8 85 -11 116 23 114 103 -5 41 -61 60 -81 82 -86 32 -7 50 0 50 18 -1 7 -25 39 -55 72 -30 33 -55 66 -55 75 0 8 15 22 33 30 38 18 77 73 77 109 -1 35 -29 85 -62 111 -21 16 -45 22 -110 25 -46 3 -91 1 -102 -3z m192 -88 c27 -31 23 -65 -11 -102 -18 -20 -29 -22 -82 -20 l-60 3 -2 65 c-2 84 6 94 77 86 42 -5 60 -12 78 -32z"/> <path d="M6746 3113 c-26 -7 -88 -46 -104 -66 -76 -92 -69 -234 16 -315 54 -52 77 -57 232 -54 80 2 149 7 154 12 13 13 -14 42 -35 37 -9 -3 -23 -1 -30 4 -11 6 -9 13 7 31 53 61 68 147 37 215 -26 57 -105 129 -151 137 -42 7 -97 6 -126 -1z m150 -78 c38 -24 76 -82 81 -123 6 -42 -13 -89 -51 -130 -97 -107 -276 -32 -276 115 0 43 5 59 33 95 19 25 48 48 67 55 41 15 114 9 146 -12z"/> <path d="M7173 3114 c-10 -4 -13 -44 -13 -149 0 -203 24 -261 117 -284 71 -18 130 -5 177 40 l41 38 3 171 c2 108 0 176 -6 182 -6 6 -23 7 -38 4 l-27 -7 5 -137 c3 -75 3 -152 1 -170 -13 -82 -151 -97 -191 -20 -7 14 -13 81 -14 178 -3 147 -4 155 -23 157 -11 1 -26 -1 -32 -3z"/> <path d="M7662 3113 l-22 -4 2 -212 3 -212 124 -5 c135 -5 166 2 145 37 -10 15 -26 18 -110 18 l-99 0 -3 69 -3 68 88 -2 c127 -4 123 -5 123 31 l0 31 -102 -4 -103 -3 0 65 0 65 101 -3 c98 -3 101 -3 107 19 11 42 -7 49 -122 48 -58 -1 -116 -4 -129 -6z"/> <path d="M8055 3110 c-4 -6 -4 -23 -1 -37 l7 -25 104 7 c97 7 105 6 105 -11 0 -10 -8 -27 -19 -38 -21 -24 -131 -185 -131 -192 0 -3 -16 -26 -35 -51 -61 -79 -56 -83 99 -83 74 0 140 -2 148 -5 7 -3 22 1 33 9 16 12 18 18 9 33 -10 16 -24 18 -118 14 -126 -4 -129 0 -63 87 24 31 54 75 67 97 13 22 28 42 32 43 4 2 8 8 8 14 0 5 20 36 45 68 28 37 41 61 34 65 -19 12 -317 16 -324 5z"/> <path d="M1200 3020 c0 -11 5 -20 10 -20 6 0 10 9 10 20 0 11 -4 20 -10 20 -5 0 -10 -9 -10 -20z"/> <path d="M4656 2745 c-22 -23 -20 -48 7 -72 39 -37 87 3 75 64 -4 24 -60 30 -82 8z"/> <path d="M1556 2588 c47 -52 57 -61 99 -90 22 -14 53 -38 69 -52 16 -14 37 -26 48 -26 10 0 18 -4 18 -8 0 -8 92 -52 109 -52 5 0 11 -4 13 -8 3 -7 134 -90 168 -105 8 -4 42 -23 75 -42 33 -20 71 -40 85 -46 14 -6 33 -15 42 -20 10 -5 23 -9 29 -9 6 0 25 -6 42 -14 42 -17 106 -34 192 -51 39 -7 84 -17 100 -22 17 -6 46 -8 66 -6 24 3 39 0 48 -11 15 -18 110 -23 127 -6 6 6 75 13 153 16 91 4 153 12 170 20 14 8 42 14 60 14 27 0 32 3 23 12 -8 8 -40 8 -129 -1 -65 -7 -147 -14 -183 -16 -36 -1 -85 -6 -110 -9 -68 -11 -354 40 -475 84 -11 4 -45 17 -75 29 -31 11 -58 21 -62 21 -3 0 -41 20 -82 45 -42 25 -79 45 -83 45 -4 0 -14 6 -22 14 -9 7 -43 28 -76 46 -33 18 -67 39 -76 46 -8 8 -20 14 -25 14 -15 0 -73 32 -139 76 -128 86 -155 105 -160 115 -4 5 -15 9 -26 9 -10 0 -19 5 -19 10 0 6 -5 10 -12 10 -6 0 1 -15 18 -32z"/> <path d="M4606 2584 c-21 -15 -47 -24 -57 -21 -11 3 -19 1 -19 -4 0 -5 5 -9 10 -9 6 0 10 -8 10 -17 0 -39 15 -45 44 -18 14 13 35 29 46 35 12 6 20 21 20 35 0 31 -5 30 -54 -1z"/> <path d="M4427 2495 c-20 -19 -47 -50 -61 -67 -14 -18 -45 -46 -70 -63 -52 -34 -59 -55 -18 -55 20 0 32 8 45 30 21 36 26 36 61 9 33 -26 44 -19 22 13 -25 35 -19 55 29 100 41 38 57 68 37 68 -5 0 -25 -16 -45 -35z"/> <path d="M4160 2240 c0 -23 -38 -28 -58 -8 -27 27 -23 -5 5 -40 41 -51 75 -62 111 -35 39 29 38 46 -7 76 -49 32 -51 33 -51 7z"/> <path d="M3810 2174 c0 -14 5 -16 51 -18 18 -1 41 -19 81 -66 31 -37 73 -79 94 -95 22 -16 51 -41 65 -57 32 -35 52 -35 74 -1 18 26 17 27 -11 50 -16 14 -67 59 -113 101 -47 43 -93 77 -105 78 -11 0 -28 3 -36 6 -8 4 -34 9 -57 11 -33 4 -43 2 -43 -9z"/> <path d="M3740 2108 c0 -9 18 -47 40 -84 44 -76 49 -103 23 -127 -16 -14 -24 -13 -92 9 -41 13 -76 22 -79 19 -10 -9 21 -35 43 -35 21 0 84 -54 132 -113 12 -15 29 -27 38 -27 28 0 29 30 1 59 -25 26 -26 30 -12 44 9 9 16 27 16 41 0 36 18 42 46 15 22 -20 24 -21 24 -4 0 10 -29 47 -65 81 -36 34 -65 67 -65 73 0 5 -11 22 -25 37 -17 19 -25 22 -25 12z"/> <path d="M3320 2051 c0 -21 87 -119 122 -137 15 -8 29 -23 33 -33 3 -11 16 -23 28 -27 12 -3 48 -33 80 -65 32 -33 67 -59 78 -59 10 0 19 3 19 6 0 4 -22 35 -50 70 -27 35 -50 65 -50 68 0 14 -75 76 -92 76 -13 0 -18 5 -15 14 4 10 1 13 -8 10 -8 -3 -35 14 -63 40 -45 42 -82 59 -82 37z"/> </g> </svg> 