<?xml version="1.0" standalone="no"?>
<!DOCTYPE svg PUBLIC "-//W3C//DTD SVG 20010904//EN"
 "http://www.w3.org/TR/2001/REC-SVG-20010904/DTD/svg10.dtd">
<svg version="1.0" xmlns="http://www.w3.org/2000/svg"
 width="630.000000pt" height="508.000000pt" viewBox="0 0 630.000000 508.000000"
 preserveAspectRatio="xMidYMid meet">

<g transform="translate(0.000000,508.000000) scale(0.100000,-0.100000)"
fill="#000000" stroke="none">
<path d="M5300 3496 l0 -354 -67 67 c-219 218 -602 241 -877 52 -100 -69 -223
-245 -242 -348 l-6 -33 66 0 66 0 0 -195 0 -195 -61 0 -61 0 7 -27 c23 -94
125 -239 219 -310 129 -98 253 -136 441 -137 155 -1 207 10 334 71 148 71 267
203 322 359 45 127 48 175 49 807 l0 597 -95 0 -95 0 0 -354z m-358 -295 c170
-47 297 -177 343 -352 19 -70 19 -220 0 -292 -33 -129 -111 -236 -215 -299
-79 -47 -142 -67 -240 -75 -318 -25 -560 199 -560 517 1 250 142 443 371 504
78 21 220 20 301 -3z"/>
<path d="M1305 3376 c-299 -59 -496 -268 -545 -576 -6 -39 -10 -293 -10 -627
l0 -563 95 0 95 0 0 347 0 346 31 -44 c73 -102 165 -171 290 -216 66 -23 89
-26 204 -27 153 0 220 15 339 77 136 70 254 202 305 340 l21 57 -65 0 -65 0 0
195 0 195 66 0 67 0 -7 33 c-3 17 -22 64 -41 102 -87 176 -240 299 -436 350
-87 23 -257 28 -344 11z m277 -167 c84 -18 202 -84 253 -142 90 -103 135 -225
135 -367 0 -352 -290 -580 -643 -505 -236 50 -386 246 -387 505 0 246 146 443
373 505 64 17 197 19 269 4z"/>
<path d="M2989 3380 c-182 -29 -351 -133 -450 -276 -33 -49 -82 -152 -93 -196
l-6 -28 93 0 93 0 26 58 c53 114 151 204 275 253 50 20 76 23 193 23 117 0
143 -3 193 -23 124 -49 222 -139 275 -253 l26 -58 93 0 93 0 -6 28 c-13 57
-71 169 -117 227 -91 113 -215 193 -357 230 -76 20 -252 28 -331 15z"/>
<path d="M2792 2678 l-2 -68 40 0 c22 0 40 5 40 10 0 6 -16 10 -35 10 l-34 0
-4 58 -3 57 -2 -67z"/>
<path d="M2965 2715 c-14 -13 -25 -31 -25 -40 0 -9 11 -27 25 -40 13 -14 31
-25 40 -25 22 0 65 45 65 69 0 21 -44 61 -67 61 -8 0 -25 -11 -38 -25z m73 -7
c7 -7 12 -21 12 -33 0 -12 -5 -26 -12 -33 -7 -7 -21 -12 -33 -12 -12 0 -26 5
-33 12 -7 7 -12 21 -12 33 0 12 5 26 12 33 7 7 21 12 33 12 12 0 26 -5 33 -12z"/>
<path d="M3165 2715 c-32 -31 -31 -50 1 -81 19 -20 31 -24 52 -19 32 8 29 5
34 35 2 18 -2 25 -17 28 -16 3 -18 1 -7 -9 21 -22 14 -39 -16 -39 -34 0 -52
16 -52 46 0 30 24 47 60 42 32 -5 41 6 14 16 -28 11 -44 6 -69 -19z"/>
<path d="M3363 2730 c-44 -18 -41 -94 4 -111 40 -15 77 8 81 52 4 50 -37 78
-85 59z m67 -26 c32 -38 -27 -95 -66 -64 -17 15 -19 66 -1 73 25 11 55 7 67
-9z"/>
<path d="M2455 2468 c3 -13 21 -54 40 -93 80 -166 234 -290 425 -341 91 -25
310 -25 400 0 176 48 348 184 422 336 62 127 65 120 -46 120 l-96 0 -24 -47
c-75 -148 -230 -246 -409 -259 -113 -8 -196 8 -293 56 -92 45 -167 118 -210
201 l-24 49 -96 0 c-94 0 -95 0 -89 -22z"/>
</g>
</svg>
